<svg xmlns="http://www.w3.org/2000/svg" viewBox="0 0 600 420"><rect width="600" height="420" rx="36" fill="#eef2ff"/><rect x="168" y="42" width="264" height="336" rx="32" fill="#0f172a"/><rect x="188" y="72" width="224" height="262" rx="18" fill="#fff"/><g fill="#111827"><rect x="226" y="132" width="5" height="130"/><rect x="238" y="132" width="10" height="130"/><rect x="255" y="132" width="4" height="130"/><rect x="266" y="132" width="13" height="130"/><rect x="286" y="132" width="6" height="130"/><rect x="301" y="132" width="3" height="130"/><rect x="311" y="132" width="14" height="130"/><rect x="333" y="132" width="5" height="130"/><rect x="346" y="132" width="11" height="130"/><rect x="365" y="132" width="4" height="130"/></g><path d="M210 112v-18h18M390 112V94h-18M210 282v18h18M390 282v18h-18" fill="none" stroke="#4f46e5" stroke-width="8" stroke-linecap="round"/><circle cx="300" cy="354" r="11" fill="#475569"/></svg>
