<svg xmlns="http://www.w3.org/2000/svg" viewBox="0 0 600 420"><rect width="600" height="420" rx="36" fill="#ecfeff"/><path d="M112 168h376l-30-82H142z" fill="#4f46e5"/><path d="M132 168h336v178H132z" fill="#fff"/><path d="M112 168h376v30c0 23-18 41-41 41s-41-18-41-41c0 23-18 41-41 41s-41-18-41-41c0 23-18 41-41 41s-41-18-41-41c0 23-18 41-41 41s-41-18-41-41c0 23-18 41-41 41s-41-18-41-41z" fill="#0ea5e9"/><rect x="174" y="252" width="92" height="94" rx="10" fill="#dbeafe"/><rect x="316" y="252" width="108" height="62" rx="10" fill="#e0e7ff"/><circle cx="246" cy="300" r="7" fill="#4f46e5"/></svg>
